<svg width="24" height="25" viewBox="0 0 24 25" fill="none" xmlns="http://www.w3.org/2000/svg">
<path d="M12.8009 2.90012V0.500122H11.2043V2.90012C10.2329 3.09193 9.36979 3.62593 8.7822 4.39857C8.1946 5.17122 7.92442 6.12747 8.02404 7.08192C8.12365 8.03638 8.58597 8.92104 9.32134 9.56439C10.0567 10.2077 11.0128 10.564 12.0041 10.564C12.9955 10.564 13.9516 10.2077 14.6869 9.56439C15.4223 8.92104 15.8846 8.03638 15.9842 7.08192C16.0839 6.12747 15.8137 5.17122 15.2261 4.39857C14.6385 3.62593 13.7753 3.09193 12.804 2.90012H12.8009Z" fill="#722ED1"/>
<path d="M20.4616 17.5321H22.4054V15.9841H19.6566L16.5078 9.89713C15.8489 10.7634 14.9394 11.4211 13.8942 11.7871L16.0644 15.9871H12.8009V14.4351H11.2012V15.9831H7.93868L10.1089 11.7831C9.06358 11.4173 8.15402 10.7595 7.49535 9.89313L4.34034 15.9841H1.59972V17.5321H3.54358L0 24.3811C0.907674 24.6007 1.86559 24.5141 2.71558 24.1358C3.56557 23.7575 4.25681 23.1099 4.67516 22.3001L7.13882 17.5331H11.2012V19.0811H12.8009V17.5321H16.8632L19.3248 22.3001C19.7432 23.1099 20.4344 23.7575 21.2844 24.1358C22.1344 24.5141 23.0923 24.6007 24 24.3811L20.4616 17.5321Z" fill="#722ED1"/>
</svg>
